<mxfile host="app.diagrams.net" modified="2025-04-10T15:00:00.000Z" agent="5.0 (Windows NT 10.0; Win64; x64) AppleWebKit/537.36 (KHTML, like Gecko) Chrome/96.0.4664.110 Safari/537.36" etag="your-etag" version="@DRAWIO-VERSION@">
  <diagram id="data-flow" name="Data Flow">
    <mxGraphModel dx="1422" dy="794" grid="1" gridSize="10" guides="1" tooltips="1" connect="1" arrows="1" fold="1" page="1" pageScale="1" pageWidth="850" pageHeight="1100" math="0" shadow="0">
      <root>
        <mxCell id="0" />
        <mxCell id="1" parent="0" />
        <mxCell id="2" value="" style="rounded=0;whiteSpace=wrap;html=1;fillColor=#ecf0f1;strokeColor=#bdc3c7;strokeWidth=3;" vertex="1" parent="1">
          <mxGeometry x="50" y="50" width="750" height="650" as="geometry" />
        </mxCell>
        <mxCell id="3" value="&lt;font style=&quot;font-size: 20px;&quot; color=&quot;#333333&quot;&gt;&lt;b&gt;Data Flow in Smart Agriculture System&lt;/b&gt;&lt;/font&gt;" style="text;html=1;align=center;verticalAlign=middle;resizable=0;points=[];autosize=1;strokeColor=none;fillColor=none;" vertex="1" parent="1">
          <mxGeometry x="245" y="70" width="360" height="40" as="geometry" />
        </mxCell>
        <mxCell id="4" value="" style="endArrow=none;html=1;rounded=0;strokeWidth=1.5;fontColor=#666666;strokeColor=#666666;" edge="1" parent="1">
          <mxGeometry width="50" height="50" relative="1" as="geometry">
            <mxPoint x="245" y="110" as="sourcePoint" />
            <mxPoint x="605" y="110" as="targetPoint" />
          </mxGeometry>
        </mxCell>
        <mxCell id="5" value="" style="rounded=1;whiteSpace=wrap;html=1;fillColor=#3498db;strokeColor=#2980b9;strokeWidth=2;" vertex="1" parent="1">
          <mxGeometry x="275" y="140" width="300" height="60" as="geometry" />
        </mxCell>
        <mxCell id="6" value="&lt;font style=&quot;font-size: 16px;&quot; color=&quot;#ffffff&quot;&gt;&lt;b&gt;1. Sensors Collect Data&lt;/b&gt;&lt;/font&gt;" style="text;html=1;strokeColor=none;fillColor=none;align=center;verticalAlign=middle;whiteSpace=wrap;rounded=0;" vertex="1" parent="1">
          <mxGeometry x="375" y="155" width="100" height="30" as="geometry" />
        </mxCell>
        <mxCell id="7" value="" style="endArrow=classic;html=1;rounded=0;strokeWidth=2;fontColor=#666666;strokeColor=#666666;" edge="1" parent="1">
          <mxGeometry width="50" height="50" relative="1" as="geometry">
            <mxPoint x="424.5" y="200" as="sourcePoint" />
            <mxPoint x="424.5" y="240" as="targetPoint" />
          </mxGeometry>
        </mxCell>
        <mxCell id="8" value="" style="shape=triangle;direction=south;fillColor=#666666;strokeColor=none;" vertex="1" parent="1">
          <mxGeometry x="417.5" y="240" width="15" height="10" as="geometry" />
        </mxCell>
        <mxCell id="9" value="" style="rounded=1;whiteSpace=wrap;html=1;fillColor=#2ecc71;strokeColor=#27ae60;strokeWidth=2;" vertex="1" parent="1">
          <mxGeometry x="200" y="250" width="450" height="60" as="geometry" />
        </mxCell>
        <mxCell id="10" value="&lt;font style=&quot;font-size: 16px;&quot; color=&quot;#ffffff&quot;&gt;&lt;b&gt;2. LoRaWAN Gateway Aggregates Sensor Data&lt;/b&gt;&lt;/font&gt;" style="text;html=1;strokeColor=none;fillColor=none;align=center;verticalAlign=middle;whiteSpace=wrap;rounded=0;" vertex="1" parent="1">
          <mxGeometry x="365" y="265" width="120" height="30" as="geometry" />
        </mxCell>
        <mxCell id="11" value="" style="endArrow=classic;html=1;rounded=0;strokeWidth=2;fontColor=#666666;strokeColor=#666666;" edge="1" parent="1">
          <mxGeometry width="50" height="50" relative="1" as="geometry">
            <mxPoint x="424.5" y="310" as="sourcePoint" />
            <mxPoint x="424.5" y="350" as="targetPoint" />
          </mxGeometry>
        </mxCell>
        <mxCell id="12" value="" style="shape=triangle;direction=south;fillColor=#666666;strokeColor=none;" vertex="1" parent="1">
          <mxGeometry x="417.5" y="350" width="15" height="10" as="geometry" />
        </mxCell>
        <mxCell id="13" value="" style="rounded=1;whiteSpace=wrap;html=1;fillColor=#9b59b6;strokeColor=#8e44ad;strokeWidth=2;" vertex="1" parent="1">
          <mxGeometry x="250" y="360" width="350" height="70" as="geometry" />
        </mxCell>
        <mxCell id="14" value="&lt;font style=&quot;font-size: 16px;&quot; color=&quot;#ffffff&quot;&gt;&lt;b&gt;3. Edge Processing&lt;/b&gt;&lt;/font&gt;" style="text;html=1;strokeColor=none;fillColor=none;align=center;verticalAlign=middle;whiteSpace=wrap;rounded=0;" vertex="1" parent="1">
          <mxGeometry x="375" y="370" width="100" height="30" as="geometry" />
        </mxCell>
        <mxCell id="15" value="&lt;font style=&quot;font-size: 14px;&quot; color=&quot;#ffffff&quot;&gt;(Filtering &amp;amp; Compression)&lt;/font&gt;" style="text;html=1;strokeColor=none;fillColor=none;align=center;verticalAlign=middle;whiteSpace=wrap;rounded=0;" vertex="1" parent="1">
          <mxGeometry x="375" y="390" width="100" height="30" as="geometry" />
        </mxCell>
        <mxCell id="16" value="" style="endArrow=classic;html=1;rounded=0;strokeWidth=2;fontColor=#666666;strokeColor=#666666;" edge="1" parent="1">
          <mxGeometry width="50" height="50" relative="1" as="geometry">
            <mxPoint x="424.5" y="430" as="sourcePoint" />
            <mxPoint x="424.5" y="470" as="targetPoint" />
          </mxGeometry>
        </mxCell>
        <mxCell id="17" value="" style="shape=triangle;direction=south;fillColor=#666666;strokeColor=none;" vertex="1" parent="1">
          <mxGeometry x="417.5" y="470" width="15" height="10" as="geometry" />
        </mxCell>
        <mxCell id="18" value="" style="rounded=1;whiteSpace=wrap;html=1;fillColor=#f1c40f;strokeColor=#f39c12;strokeWidth=2;" vertex="1" parent="1">
          <mxGeometry x="250" y="480" width="350" height="60" as="geometry" />
        </mxCell>
        <mxCell id="19" value="&lt;font style=&quot;font-size: 16px;&quot; color=&quot;#ffffff&quot;&gt;&lt;b&gt;4. Cloud Storage &amp;amp; Processing&lt;/b&gt;&lt;/font&gt;" style="text;html=1;strokeColor=none;fillColor=none;align=center;verticalAlign=middle;whiteSpace=wrap;rounded=0;" vertex="1" parent="1">
          <mxGeometry x="375" y="495" width="100" height="30" as="geometry" />
        </mxCell>
        <mxCell id="20" value="" style="endArrow=classic;html=1;rounded=0;strokeWidth=2;fontColor=#666666;strokeColor=#666666;" edge="1" parent="1">
          <mxGeometry width="50" height="50" relative="1" as="geometry">
            <mxPoint x="424.5" y="540" as="sourcePoint" />
            <mxPoint x="424.5" y="580" as="targetPoint" />
          </mxGeometry>
        </mxCell>
        <mxCell id="21" value="" style="shape=triangle;direction=south;fillColor=#666666;strokeColor=none;" vertex="1" parent="1">
          <mxGeometry x="417.5" y="580" width="15" height="10" as="geometry" />
        </mxCell>
        <mxCell id="22" value="" style="rounded=1;whiteSpace=wrap;html=1;fillColor=#f1c40f;strokeColor=#f39c12;strokeWidth=2;" vertex="1" parent="1">
          <mxGeometry x="250" y="590" width="350" height="60" as="geometry" />
        </mxCell>
        <mxCell id="23" value="&lt;font style=&quot;font-size: 16px;&quot; color=&quot;#ffffff&quot;&gt;&lt;b&gt;5. Data Analytics &amp;amp; Machine Learning&lt;/b&gt;&lt;/font&gt;" style="text;html=1;strokeColor=none;fillColor=none;align=center;verticalAlign=middle;whiteSpace=wrap;rounded=0;" vertex="1" parent="1">
          <mxGeometry x="375" y="605" width="100" height="30" as="geometry" />
        </mxCell>
        <mxCell id="24" value="" style="rounded=1;whiteSpace=wrap;html=1;fillColor=#e74c3c;strokeColor=#c0392b;strokeWidth=2;" vertex="1" parent="1">
          <mxGeometry x="599" y="590" width="120" height="60" as="geometry" />
        </mxCell>
        <mxCell id="25" value="&lt;font style=&quot;font-size: 16px;&quot; color=&quot;#ffffff&quot;&gt;&lt;b&gt;6. Decision Making&lt;/b&gt;&lt;/font&gt;" style="text;html=1;strokeColor=none;fillColor=none;align=center;verticalAlign=middle;whiteSpace=wrap;rounded=0;" vertex="1" parent="1">
          <mxGeometry x="629" y="605" width="60" height="30" as="geometry" />
        </mxCell>
        <mxCell id="26" value="" style="endArrow=classic;html=1;rounded=0;strokeWidth=2;fontColor=#666666;strokeColor=#666666;" edge="1" parent="1">
          <mxGeometry width="50" height="50" relative="1" as="geometry">
            <mxPoint x="600" y="619.5" as="sourcePoint" />
            <mxPoint x="560" y="619.5" as="targetPoint" />
          </mxGeometry>
        </mxCell>
        <mxCell id="27" value="" style="curved=1;endArrow=classic;html=1;rounded=0;strokeWidth=1.5;fontColor=#666666;strokeColor=#666666;dashed=1;exitX=0;exitY=0.5;exitDx=0;exitDy=0;entryX=0;entryY=0.5;entryDx=0;entryDy=0;" edge="1" parent="1" source="24" target="18">
          <mxGeometry width="50" height="50" relative="1" as="geometry">
            <mxPoint x="400" y="430" as="sourcePoint" />
            <mxPoint x="450" y="380" as="targetPoint" />
            <Array as="points">
              <mxPoint x="150" y="620" />
              <mxPoint x="150" y="510" />
            </Array>
          </mxGeometry>
        </mxCell>
        <mxCell id="28" value="&lt;font style=&quot;font-size: 14px;&quot; color=&quot;#666666&quot;&gt;&lt;b&gt;User Feedback&lt;/b&gt;&lt;/font&gt;" style="text;html=1;strokeColor=none;fillColor=none;align=center;verticalAlign=middle;whiteSpace=wrap;rounded=0;direction=west;" vertex="1" parent="1">
          <mxGeometry x="100" y="560" width="60" height="30" as="geometry" />
        </mxCell>
        <mxCell id="29" value="" style="shape=triangle;direction=west;fillColor=#666666;strokeColor=none;" vertex="1" parent="1">
          <mxGeometry x="167.5" y="570" width="15" height="10" as="geometry" />
        </mxCell>
        <mxCell id="30" value="" style="rounded=1;whiteSpace=wrap;html=1;fillColor=#3498db;strokeColor=#2980b9;strokeWidth=1;dashed=1;strokeDashPattern=1 1;fillStyle=hatch;gradientColor=none;" vertex="1" parent="1">
          <mxGeometry x="250" y="140" width="300" height="60" as="geometry" />
        </mxCell>
        <mxCell id="31" value="" style="endArrow=classic;html=1;rounded=0;strokeWidth=2;fontColor=#666666;strokeColor=#666666;exitX=1;exitY=0.5;exitDx=0;exitDy=0;entryX=0;entryY=0.5;entryDx=0;entryDy=0;" edge="1" parent="1" source="22" target="24">
          <mxGeometry width="50" height="50" relative="1" as="geometry">
            <mxPoint x="434.5" y="550" as="sourcePoint" />
            <mxPoint x="434.5" y="590" as="targetPoint" />
          </mxGeometry>
        </mxCell>
        <mxCell id="32" value="" style="rounded=1;whiteSpace=wrap;html=1;fillColor=#27ae60;strokeColor=#2ecc71;strokeWidth=2;" vertex="1" parent="1">
          <mxGeometry x="599" y="480" width="120" height="60" as="geometry" />
        </mxCell>
        <mxCell id="33" value="&lt;font style=&quot;font-size: 14px;&quot; color=&quot;#ffffff&quot;&gt;&lt;b&gt;7. Irrigation Control&lt;/b&gt;&lt;/font&gt;" style="text;html=1;strokeColor=none;fillColor=none;align=center;verticalAlign=middle;whiteSpace=wrap;rounded=0;" vertex="1" parent="1">
          <mxGeometry x="629" y="495" width="60" height="30" as="geometry" />
        </mxCell>
        <mxCell id="34" value="" style="endArrow=classic;html=1;rounded=0;strokeWidth=2;fontColor=#666666;strokeColor=#666666;entryX=0.5;entryY=1;entryDx=0;entryDy=0;exitX=0.5;exitY=0;exitDx=0;exitDy=0;" edge="1" parent="1" source="24" target="32">
          <mxGeometry width="50" height="50" relative="1" as="geometry">
            <mxPoint x="610" y="629.5" as="sourcePoint" />
            <mxPoint x="570" y="629.5" as="targetPoint" />
          </mxGeometry>
        </mxCell>
        <mxCell id="35" value="&lt;font style=&quot;font-size: 12px;&quot; color=&quot;#333333&quot;&gt;&lt;i&gt;Collect soil moisture, temperature, and other sensor data&lt;/i&gt;&lt;/font&gt;" style="text;html=1;strokeColor=none;fillColor=none;align=center;verticalAlign=middle;whiteSpace=wrap;rounded=0;" vertex="1" parent="1">
          <mxGeometry x="610" y="150" width="180" height="30" as="geometry" />
        </mxCell>
        <mxCell id="36" value="&lt;font style=&quot;font-size: 12px;&quot; color=&quot;#333333&quot;&gt;&lt;i&gt;Combines data from multiple sensors&lt;/i&gt;&lt;/font&gt;" style="text;html=1;strokeColor=none;fillColor=none;align=center;verticalAlign=middle;whiteSpace=wrap;rounded=0;" vertex="1" parent="1">
          <mxGeometry x="650" y="265" width="140" height="30" as="geometry" />
        </mxCell>
        <mxCell id="37" value="&lt;font style=&quot;font-size: 12px;&quot; color=&quot;#333333&quot;&gt;&lt;i&gt;Local data validation and compression&lt;/i&gt;&lt;/font&gt;" style="text;html=1;strokeColor=none;fillColor=none;align=center;verticalAlign=middle;whiteSpace=wrap;rounded=0;" vertex="1" parent="1">
          <mxGeometry x="620" y="380" width="160" height="30" as="geometry" />
        </mxCell>
        <mxCell id="38" value="&lt;font style=&quot;font-size: 12px;&quot; color=&quot;#333333&quot;&gt;&lt;i&gt;Storage and initial processing&lt;/i&gt;&lt;/font&gt;" style="text;html=1;strokeColor=none;fillColor=none;align=center;verticalAlign=middle;whiteSpace=wrap;rounded=0;" vertex="1" parent="1">
          <mxGeometry x="150" y="495" width="100" height="30" as="geometry" />
        </mxCell>
        <mxCell id="39" value="&lt;font style=&quot;font-size: 12px;&quot; color=&quot;#333333&quot;&gt;&lt;i&gt;Advanced analytics, ML models, and predictions&lt;/i&gt;&lt;/font&gt;" style="text;html=1;strokeColor=none;fillColor=none;align=center;verticalAlign=middle;whiteSpace=wrap;rounded=0;" vertex="1" parent="1">
          <mxGeometry x="120" y="605" width="130" height="30" as="geometry" />
        </mxCell>
      </root>
    </mxGraphModel>
  </diagram>
</mxfile>